<?xml version="1.0" encoding="utf-8"?>
<!-- Generator: Adobe Illustrator 24.1.2, SVG Export Plug-In . SVG Version: 6.00 Build 0)  -->
<svg version="1.1" xmlns="http://www.w3.org/2000/svg" xmlns:xlink="http://www.w3.org/1999/xlink" x="0px" y="0px"
	 viewBox="0 0 691 437" style="enable-background:new 0 0 691 437;" xml:space="preserve">
<style type="text/css">
	.st0{fill:#DE4F9D;}
	.st1{fill:#CE4B33;}
	.st2{fill:#F06527;}
	.st3{fill:#3DA461;}
	.st4{fill:#FEDA10;}
	.st5{fill:#BF9F7D;}
	.st6{fill:#0D55A6;}
	.st7{fill:#A273B1;}
	.st8{fill:#EF4330;}
	.st9{fill:#FFFFFF;}
</style>
<g id="Laag_10_1_">
	<g id="Laag_10">
		<path class="st0" d="M317,269c46.67-34,93.33-68,140-102c-57.67-0.33-115.33-0.67-173-1c-18.33-55.33-36.67-110.67-55-166
			c-18.33,55.33-36.67,110.67-55,166c-58,0-116,0-174,0c46.67,34.33,93.33,68.67,140,103c-17.67,56-35.33,112-53,168
			c47.33-34.67,94.67-69.33,142-104c47.67,34.67,95.33,69.33,143,104C353.67,381,335.33,325,317,269z"/>
	</g>
</g>
<g id="Laag_9_1_">
	<g id="Laag_9">
		<path class="st1" d="M343,269c46.67-34,93.33-68,140-102c-57.67-0.33-115.33-0.67-173-1c-18.33-55.33-36.67-110.67-55-166
			c-18.33,55.33-36.67,110.67-55,166c-58,0-116,0-174,0c46.67,34.33,93.33,68.67,140,103c-17.67,56-35.33,112-53,168
			c47.33-34.67,94.67-69.33,142-104c47.67,34.67,95.33,69.33,143,104C379.67,381,361.33,325,343,269z"/>
	</g>
</g>
<g id="Laag_8_1_">
	<g id="Laag_8">
		<path class="st2" d="M368,269c46.67-34,93.33-68,140-102c-57.67-0.33-115.33-0.67-173-1c-18.33-55.33-36.67-110.67-55-166
			c-18.33,55.33-36.67,110.67-55,166c-58,0-116,0-174,0c46.67,34.33,93.33,68.67,140,103c-17.67,56-35.33,112-53,168
			c47.33-34.67,94.67-69.33,142-104c47.67,34.67,95.33,69.33,143,104C404.67,381,386.33,325,368,269z"/>
	</g>
</g>
<g id="Laag_7_1_">
	<g id="Laag_7">
		<path class="st3" d="M395,269c46.67-34,93.33-68,140-102c-57.67-0.33-115.33-0.67-173-1c-18.33-55.33-36.67-110.67-55-166
			c-18.33,55.33-36.67,110.67-55,166c-58,0-116,0-174,0c46.67,34.33,93.33,68.67,140,103c-17.67,56-35.33,112-53,168
			c47.33-34.67,94.67-69.33,142-104c47.67,34.67,95.33,69.33,143,104C431.67,381,413.33,325,395,269z"/>
	</g>
</g>
<g id="Laag_6_1_">
	<g id="Laag_6">
		<path class="st4" d="M420,269c46.67-34,93.33-68,140-102c-57.67-0.33-115.33-0.67-173-1c-18.33-55.33-36.67-110.67-55-166
			c-18.33,55.33-36.67,110.67-55,166c-58,0-116,0-174,0c46.67,34.33,93.33,68.67,140,103c-17.67,56-35.33,112-53,168
			c47.33-34.67,94.67-69.33,142-104c47.67,34.67,95.33,69.33,143,104C456.67,381,438.33,325,420,269z"/>
	</g>
</g>
<g id="Laag_5_1_">
	<g id="Laag_5">
		<path class="st5" d="M444,269c46.67-34,93.33-68,140-102c-57.67-0.33-115.33-0.67-173-1c-18.33-55.33-36.67-110.67-55-166
			c-18.33,55.33-36.67,110.67-55,166c-58,0-116,0-174,0c46.67,34.33,93.33,68.67,140,103c-17.67,56-35.33,112-53,168
			c47.33-34.67,94.67-69.33,142-104c47.67,34.67,95.33,69.33,143,104C480.67,381,462.33,325,444,269z"/>
	</g>
</g>
<g id="Laag_4_1_">
	<g id="Laag_4">
		<path class="st6" d="M472,269c46.67-34,93.33-68,140-102c-57.67-0.33-115.33-0.67-173-1c-18.33-55.33-36.67-110.67-55-166
			c-18.33,55.33-36.67,110.67-55,166c-58,0-116,0-174,0c46.67,34.33,93.33,68.67,140,103c-17.67,56-35.33,112-53,168
			c47.33-34.67,94.67-69.33,142-104c47.67,34.67,95.33,69.33,143,104C508.67,381,490.33,325,472,269z"/>
	</g>
</g>
<g id="Laag_3_1_">
	<g id="Laag_3">
		<path class="st7" d="M498,269c46.67-34,93.33-68,140-102c-57.67-0.33-115.33-0.67-173-1c-18.33-55.33-36.67-110.67-55-166
			c-18.33,55.33-36.67,110.67-55,166c-58,0-116,0-174,0c46.67,34.33,93.33,68.67,140,103c-17.67,56-35.33,112-53,168
			c47.33-34.67,94.67-69.33,142-104c47.67,34.67,95.33,69.33,143,104C534.67,381,516.33,325,498,269z"/>
	</g>
</g>
<g id="Laag_2">
	<g id="Laag_2_1_">
		<path class="st8" d="M525,269c46.67-34,93.33-68,140-102c-57.67-0.33-115.33-0.67-173-1c-18.33-55.33-36.67-110.67-55-166
			c-18.33,55.33-36.67,110.67-55,166c-58,0-116,0-174,0c46.67,34.33,93.33,68.67,140,103c-17.67,56-35.33,112-53,168
			c47.33-34.67,94.67-69.33,142-104c47.67,34.67,95.33,69.33,143,104C561.67,381,543.33,325,525,269z"/>
	</g>
</g>
<g id="Laag_1">
	<g id="Laag_1_1_">
		<path class="st9" d="M551,269c46.67-34,93.33-68,140-102c-57.67-0.33-115.33-0.67-173-1c-18.33-55.33-36.67-110.67-55-166
			c-18.33,55.33-36.67,110.67-55,166c-58,0-116,0-174,0c46.67,34.33,93.33,68.67,140,103c-17.67,56-35.33,112-53,168
			c47.33-34.67,94.67-69.33,142-104c47.67,34.67,95.33,69.33,143,104C587.67,381,569.33,325,551,269z"/>
	</g>
</g>
</svg>
