<?xml version="1.0" encoding="utf-8"?>
<!-- Generator: Adobe Illustrator 24.1.2, SVG Export Plug-In . SVG Version: 6.00 Build 0)  -->
<svg version="1.1" xmlns="http://www.w3.org/2000/svg" xmlns:xlink="http://www.w3.org/1999/xlink" x="0px" y="0px"
	 viewBox="0 0 1920 1080" style="enable-background:new 0 0 1920 1080;" xml:space="preserve">
<style type="text/css">
.st0{fill:#DE4F9D;}
.st1{fill:#CE4B33;}
.st2{fill:#F06527;}
.st3{fill:#3DA461;}
.st4{fill:#FEDA10;}
.st5{fill:#BF9F7D;}
.st6{fill:#0D55A6;}
.st7{fill:#A273B1;}
.st8{fill:#EF4330;}
.st9{fill:#FFFFFF;}
</style>
<g id="Laag_11">
</g>
<g id="Laag_10">
	<path class="st0" d="M893,554c46.67-34,93.33-68,140-102c-57.67-0.33-115.33-0.67-173-1c-18.33-55.33-36.67-110.67-55-166
		c-18.33,55.33-36.67,110.67-55,166c-58,0-116,0-174,0c46.67,34.33,93.33,68.67,140,103c-17.67,56-35.33,112-53,168
		c47.33-34.67,94.67-69.33,142-104c47.67,34.67,95.33,69.33,143,104C929.67,666,911.33,610,893,554z"/>
</g>
<g id="Laag_9">
	<path class="st1" d="M919,554c46.67-34,93.33-68,140-102c-57.67-0.33-115.33-0.67-173-1c-18.33-55.33-36.67-110.67-55-166
		c-18.33,55.33-36.67,110.67-55,166c-58,0-116,0-174,0c46.67,34.33,93.33,68.67,140,103c-17.67,56-35.33,112-53,168
		c47.33-34.67,94.67-69.33,142-104c47.67,34.67,95.33,69.33,143,104C955.67,666,937.33,610,919,554z"/>
</g>
<g id="Laag_8">
	<path class="st2" d="M944,554c46.67-34,93.33-68,140-102c-57.67-0.33-115.33-0.67-173-1c-18.33-55.33-36.67-110.67-55-166
		c-18.33,55.33-36.67,110.67-55,166c-58,0-116,0-174,0c46.67,34.33,93.33,68.67,140,103c-17.67,56-35.33,112-53,168
		c47.33-34.67,94.67-69.33,142-104c47.67,34.67,95.33,69.33,143,104C980.67,666,962.33,610,944,554z"/>
</g>
<g id="Laag_7">
	<path class="st3" d="M971,554c46.67-34,93.33-68,140-102c-57.67-0.33-115.33-0.67-173-1c-18.33-55.33-36.67-110.67-55-166
		c-18.33,55.33-36.67,110.67-55,166c-58,0-116,0-174,0c46.67,34.33,93.33,68.67,140,103c-17.67,56-35.33,112-53,168
		c47.33-34.67,94.67-69.33,142-104c47.67,34.67,95.33,69.33,143,104C1007.67,666,989.33,610,971,554z"/>
</g>
<g id="Laag_6">
	<path class="st4" d="M996,554c46.67-34,93.33-68,140-102c-57.67-0.33-115.33-0.67-173-1c-18.33-55.33-36.67-110.67-55-166
		c-18.33,55.33-36.67,110.67-55,166c-58,0-116,0-174,0c46.67,34.33,93.33,68.67,140,103c-17.67,56-35.33,112-53,168
		c47.33-34.67,94.67-69.33,142-104c47.67,34.67,95.33,69.33,143,104C1032.67,666,1014.33,610,996,554z"/>
</g>
<g id="Laag_5">
	<path class="st5" d="M1020,554c46.67-34,93.33-68,140-102c-57.67-0.33-115.33-0.67-173-1c-18.33-55.33-36.67-110.67-55-166
		c-18.33,55.33-36.67,110.67-55,166c-58,0-116,0-174,0c46.67,34.33,93.33,68.67,140,103c-17.67,56-35.33,112-53,168
		c47.33-34.67,94.67-69.33,142-104c47.67,34.67,95.33,69.33,143,104C1056.67,666,1038.33,610,1020,554z"/>
</g>
<g id="Laag_4">
	<path class="st6" d="M1048,554c46.67-34,93.33-68,140-102c-57.67-0.33-115.33-0.67-173-1c-18.33-55.33-36.67-110.67-55-166
		c-18.33,55.33-36.67,110.67-55,166c-58,0-116,0-174,0c46.67,34.33,93.33,68.67,140,103c-17.67,56-35.33,112-53,168
		c47.33-34.67,94.67-69.33,142-104c47.67,34.67,95.33,69.33,143,104C1084.67,666,1066.33,610,1048,554z"/>
</g>
<g id="Laag_3">
	<path class="st7" d="M1074,554c46.67-34,93.33-68,140-102c-57.67-0.33-115.33-0.67-173-1c-18.33-55.33-36.67-110.67-55-166
		c-18.33,55.33-36.67,110.67-55,166c-58,0-116,0-174,0c46.67,34.33,93.33,68.67,140,103c-17.67,56-35.33,112-53,168
		c47.33-34.67,94.67-69.33,142-104c47.67,34.67,95.33,69.33,143,104C1110.67,666,1092.33,610,1074,554z"/>
</g>
<g id="Laag_2">
	<path class="st8" d="M1101,554c46.67-34,93.33-68,140-102c-57.67-0.33-115.33-0.67-173-1c-18.33-55.33-36.67-110.67-55-166
		c-18.33,55.33-36.67,110.67-55,166c-58,0-116,0-174,0c46.67,34.33,93.33,68.67,140,103c-17.67,56-35.33,112-53,168
		c47.33-34.67,94.67-69.33,142-104c47.67,34.67,95.33,69.33,143,104C1137.67,666,1119.33,610,1101,554z"/>
</g>
<g id="Laag_1">
	<path class="st9" d="M1127,554c46.67-34,93.33-68,140-102c-57.67-0.33-115.33-0.67-173-1c-18.33-55.33-36.67-110.67-55-166
		c-18.33,55.33-36.67,110.67-55,166c-58,0-116,0-174,0c46.67,34.33,93.33,68.67,140,103c-17.67,56-35.33,112-53,168
		c47.33-34.67,94.67-69.33,142-104c47.67,34.67,95.33,69.33,143,104C1163.67,666,1145.33,610,1127,554z"/>
</g>
</svg>
